<svg xmlns="http://www.w3.org/2000/svg" viewBox="0 0 947 996"><path fill="#88ade3" d="M599.31 0h16.75c36.69 2.51 81.96 20.04 93 59.23 8.9 31.57-11.68 56.64-37.76 70.86q-1.26.68.17.71c109.38 1.83 186.96 106.75 152.08 211.99a.52.5-79.6 0 0 .45.68q6.61.13 13.01 1.73a.7.55-69.7 0 0 .69-.42c7.99-18.07 23.83-41.41 47.15-36.52 11.13 2.34 17.12 13.62 18.4 24.02 2.8 22.75-10.02 43.57-30.4 53.66a.86.86-12.6 0 0-.47.73c-1 24.97-16.23 47.21-35.81 61.65-33.19 24.47-76.87 30.51-116.34 20.56a1.4 1.39-50.4 0 0-.93.09c-7.54 3.49-16.42 5.79-23.38 10.12-15.96 9.93-34.62 17.6-53.53 19.2a.48.48 78.1 0 0-.41.63c8.13 24.52 23.13 48.85 43.72 64.44q18.35 13.88 42.93 19.56a2.06 2.05-70 0 0 2.29-1.07c5.2-10.22 15.55-18.73 27.62-20.05a.73.72 3.4 0 0 .62-.54c5.69-22.33 15.29-42.42 30.37-59.89q1.94-2.25 3.58-5.37 9.87-18.83 30.57-20.81c11.47-1.09 20.18 2.53 24.86 13.17a.42.42-28.6 0 0 .62.18c10.73-7.02 19.63-13.52 32.51-12.18 17.65 1.84 28.39 11.89 38.4 25.83q11.78 16.4 20.59 30.38c3.82 6.06 5.5 11.71 6.34 18.49v7.75c-2.56 18.07-8.54 31.49-16.99 49.04q-11.73 24.37-21.76 42.65c-14.69 26.78-42.08 46.85-73.33 45.56-21.7-.89-42.9-11.38-58.38-26.48a.69.69 53.2 0 0-.8-.12c-18.36 9.75-33.86 3.65-44.61-12.9a1.53 1.51-6.8 0 0-.76-.59c-50.31-17.05-94.4-52.4-113.66-102.82q-.55-1.44-1.42-.17-13.06 19.15-30.85 33.31c-2.77 2.21-6.08 3.49-9.26 5.21a1.32.93-89.8 0 0-.55.78q-4.88 17.65-1.64 35.71a.49.46-4.9 0 1-.49.54q-18.69-.06-36.32-6.21a1.19 1.15 42.7 0 0-.86.02c-5.09 2.1-8.78 6.76-12.7 10.5a.45.44-47.4 0 0 .02.66c11.61 9.39 17.6 15.9 18.68 31.62a1.02 1.01 15.3 0 0 .45.78c16.25 11.17 33.77 25.82 27.49 47.85q-3.94 13.81-9.33 22.44c-14.67 23.44-36.81 41.95-59.79 56.88q-.41.27.08.19c8.19-1.33 17.37-3.14 25.5-1.16 10.46 2.54 12.69 14.07 6.02 21.65q-6.45 7.34-15.61 10.87c-5.72 2.21-10.25 4.72-15.6 6.67q-.81.3-.01.63c17.02 7.18 39.45 10.73 55.05 12.71 16.14 2.05 33.69 3.54 47.97 12.12 17.21 10.35 35.55 31.62 33.79 53.01-3.55 43.18-37 71.45-77.95 79.27-47.75 9.11-97.3 1.78-138-25.68-47.55-32.07-82.9-84.19-87.06-142.52q-1.2-16.85 3.57-32.61c10.82-35.69 42.35-46.63 76.62-41.19a.88.83-65.1 0 0 .8-.32c11.64-14.82 37.19-11.07 52.13-5.23a2.15 2.15 35.8 0 0 2.17-.35q17.22-14.36 33.08-30.19a.55.46-43.8 0 0 .08-.71q-4.74-5.04-10.18-9.33a.66.5-43.4 0 0-.74.08c-3 2.4-5.47 5.08-8.9 6.78q-41.76 20.67-87.93 27.63a.64.58-12.1 0 1-.7-.41q-3.87-14.38-9.34-28.22a.47.45 62.9 0 0-.67-.23c-11.23 7.59-25.07 17.11-35.43 27.37a1.2.87 19.7 0 1-.86.25q-21.19-2.19-38.12-15.05a.82.78-38.9 0 0-.85-.07q-22.71 11.39-44.32 24.73a.7.66 67.2 0 0-.29.77c4.79 17.72-.26 37.32-20.44 41.33q-.48.1-.03.33c6.32 3.3 13.68 7.25 17.24 13.35 4.07 6.94.63 15.92-5.48 20.4-11.89 8.74-23.54 5.85-36.52 6.48a.56.54-.6 0 0-.53.52q-1.33 31.3 16.06 56.58 1.58 2.31 4.22 4.2c13.98 10.03 23.45 21.56 33.34 36.22 7.01 10.4 12.6 22.56 10.18 34.75-4.04 20.34-28.59 27.47-45.93 31.27q-49.72 10.9-99.32-.36c-28.67-6.51-63.51-25.66-73.44-55.54q-1.56-4.68-2.54-14.31c-1.24-12.24-2.98-23.34-3.01-36.56-.11-54.99 16.6-114.51 51.81-157.38 23.36-28.44 58.61-41.29 94.26-28.75q1.88.66 3.98.43 14.28-1.55 26.33 6.32a.92.9-42.9 0 0 .95.02l47.83-27.21a.85.73 70 0 0 .33-.87c-5.56-24.54-3.63-52.04.36-76.93q1.05-6.57 3.14-12.14a.99.71 3.3 0 1 .79-.5q23.09-2.15 43.21-13.55a1.01 1 78.3 0 0 .48-.74c4.66-44.52 49.17-69.08 88.53-75.06a.89.85-84.8 0 0 .69-.6q4.48-13.71 12.14-25.91a.8.75 23.6 0 1 .87-.31c13.97 3.77 28.43 5.42 42.52 1.11q24.58-7.53 43.07-25.98a1.1 1.09-48.6 0 0-.1-1.64c-42.82-33.19-97.4-52.89-150.23-30.74a.85.83 82 0 0-.51.7c-1.92 19.08-10.19 36.81-26.31 47.73a.85.84 70.2 0 0-.36.78c3.3 32.33-5.56 66.25-28.56 89.99q-6.84 7.05-16.38 7.52-20.62 1.02-38.68-8.55a.74.72-51.8 0 0-.82.11Q244.2 563.57 233.49 570c-15.53 9.32-39.9 6.74-46.76-12.49q-7.53-21.1-3.91-44.3a1.34 1.33 33 0 0-.2-.91q-3.31-5.18-6.39-10.35c-12.68-21.3-16.65-55.23-4.7-77.53 21.89-40.87 65.16-63.86 110.74-65.36a1.1 1.1 19.3 0 0 .82-.39c17.64-20.33 42.85-20.98 63.55-4.35a.83.82-36.4 0 0 .84.12q27.12-11.57 55.02-13.17c22.38-1.28 46.63 5.62 67.33 14.14 27.71 11.4 53.29 26.6 77.38 44.12q.4.29.26-.19-.91-3.03-1.98-4.32c-30.41-36.56-43.04-83.84-34.8-130.79q.06-.36-.26-.19c-46.81 24.65-125.97 23.17-161.16-22.56-12.85-16.7-16.56-38.5-8.14-57.57 12.25-27.77 41.93-43.74 71.07-49.5 41.24-8.14 83.35 1.72 114.44 29.98q11.61 10.56 18.2 24.88a.36.31 54.6 0 0 .55.13q23.26-27.9 56.15-43.33.65-.31-.04-.35c-33.23-2.29-72.92-15.29-89.67-46.25-8.8-16.28-9.67-34.64-1.14-51.3C526.95 16.45 565.65 2.56 599.31 0Z"/></svg>