<?xml version="1.0" encoding="UTF-8"?>
<svg id="Layer_1" xmlns="http://www.w3.org/2000/svg" version="1.1" viewBox="0 0 728 225.5">
  <!-- Generator: Adobe Illustrator 30.1.0, SVG Export Plug-In . SVG Version: 2.1.1 Build 136)  -->
  <g>
    <path d="M239.3,94.1c-2.4-9-8.5-14.3-18.3-15.8-12.7-1.9-23.1,1.5-31.2,10.2-.2.2-.4.2-.5.1-.1,0,1.2-7.1,1.2-7.3,0-.3-.1-.6-.4-.6,0,0,0,0,0,0l-22.8-.3c-.2,0-.4.2-.4.6l-15.5,83.8c0,.2.1.4.4.5,0,0,0,0,0,0h24.5c.2,0,.5-.2.5-.5,4.4-24.7,7.3-40.4,8.8-47.1,2.3-10.4,8.6-17.5,20-15.7,8.4,1.3,8.4,9.6,7.2,16.2-2.8,15.5-5.7,31-8.6,46.5,0,.3.1.7.4.7,0,0,0,0,0,0h24.5c.2,0,.5-.2.5-.5l5.2-27.1" vector-effect="non-scaling-stroke" fill="none" stroke="#d8dbde" stroke-width="2"/>
    <path d="M235.1,137.6c10.2,8.7,21.2,16.1,33.1,22.1.3.1.5.4.5.7,1.3,6.4,1.4,11.3,5.5,17,.5.8,1.4,1.2,2.3,1.4,7.7.9,12.1-.7,13.3-9.6.1-.8.8-1.3,1.6-1.2,0,0,0,0,0,0,4,.8,8.6,1.6,13.6,2.4,31.9,5,68.7-2.5,90-28.4,33.9-41.1-16.6-88.8-49-108.1C303.2,8.2,252.4-6.7,202.5,5.1c-9.9,2.3-15.7,7.2-16.6,17.6,0,.3,0,.6.3.9,3.9,3.8,11.5,3.4,16.2,2,1.6-.5,2.2-1.3,1.6-2.6-1-2.2-6.5-3.2-8.7-3.6-.3,0-.6-.3-.6-.6,0-1.3,7.8-2.4,8.3-2.4,56.3-7.3,112.4,11.9,155.6,48.2,15.7,13.2,28,31.2,26,52.4-3.3,35.3-54.5,39.1-80.2,37.8-4.8-.2-9.4-1.2-14-2.9-.2,0-.4-.3-.4-.6l-.5-48.5c0-.2.2-.4.4-.4,0,0,0,0,0,0,15.8.2,35.9,3,50.2,10.2.4.2.6.7.4,1.1,0,0,0,.1-.1.2-2.6,3.1-5.6,5.9-8.9,8.4-1.6,1.2-1.4,2.2.4,3,13.6,6.4,31.9-11.4,20-24.4-13.9-15.1-42.9-15.9-61.7-15.9-.3,0-.5-.2-.5-.5-.6-10.5,1.6-31.8-10.5-36.8-1.2-.5-2.1-.2-2.8,1-2.3,4.3-3.7,8.8-4.2,13.7-.8,8-1.6,16-2.4,24,0,.3-.2.5-.5.5-10.1,1.8-20.1,4.2-29.9,7.3" vector-effect="non-scaling-stroke" fill="none" stroke="#bfd3eb" stroke-width="2"/>
    <path d="M235.1,137.6c-4.8-4.1-9.1-8.7-12.9-13.8-12.3-16.6,5.7-23.9,17.2-29.8" vector-effect="non-scaling-stroke" fill="none" stroke="#98aec9" stroke-width="2"/>
    <path d="M403,33.2c-8,8.7-10.6,20.7-1.9,30,.2.2.3.5.2.8-1.2,4.6-.4,8.4,2.4,11.3,4.3,4.4,7.3-1.9,9.6-4.5.2-.2.5-.3.8-.2,8.4,2.8,16.6,2.6,24.4-.7,11.2-4.6,32.5-19,32.3-33.1,0-7.7-4.3-12.2-12.8-13.4-.3,0-.6-.2-.8-.4-15.3-16.3-42.2-2.9-54.2,10.3M566.7,132c-6.2-8.5-12-17.2-17.6-26.2-1.8-2.8-12-17-16.2-17.6-4.8-.6-8.4,12.2-9.3,15.3-4.1,14.5-5.9,29.2-5.4,44.3.1,4.2,2,7.3,5.7,9.4,3.6,2,7.3,1.5,8.4-3,3-13.2,2.8-26,3.4-39.1.1-3,.9-3.1,2.3-.5,6.2,11.7,13.1,23.5,20.8,35.3,3,4.5,8.4,5.3,13.2,2.9,5.8-3,8.9-7.7,10.4-14.3,4.8-21.6-1.2-44.8-15.3-61.8-2.2-2.7-4.4-4.3-6.6-4.7-3.1-.6-4.3.6-3.5,3.7,4.5,17.2,9.5,33.9,11.1,51.2.2,1.8,0,3.5-.5,5-.2.7-.5.7-.9.2" vector-effect="non-scaling-stroke" fill="none" stroke="#bfd3eb" stroke-width="2"/>
    <path d="M39.1,88.5l1.3-7.2c0-.3-.1-.6-.4-.7,0,0,0,0,0,0h-22.5c-.4,0-.8.3-.9.9L1,164.7c0,.3,0,.5.3.6,0,0,0,0,0,0h24.6c.3,0,.5-.3.6-.6,4.7-26.2,7.6-42,8.8-47.4,2.5-11.1,11.8-13.8,21.9-14.1.3,0,.5-.2.5-.4l4.6-24.5c0-.2-.1-.5-.4-.5,0,0,0,0,0,0-9.4,0-16.8,3.6-22.3,11-.4.6-.6.5-.5-.2M113.9,157.5l-1.2,5.8c-.2.8.3,1.7,1,1.8,0,0,.2,0,.3,0h21.8c.2,0,.4-.2.4-.5l15.5-83.3c0-.4-.2-.8-.6-.9,0,0,0,0-.1,0h-24c-.3,0-.6.3-.7.6-2.8,15.5-5.8,31-8.8,46.5-2.2,11.3-9.3,18.9-21.8,15.8-7.2-1.8-7.1-9.1-5.9-15.2,2.9-15.6,5.8-31.3,8.7-47.1,0-.3-.1-.6-.4-.7,0,0,0,0,0,0h-24.2c-.3,0-.6.3-.7.6-3.2,17.1-6.3,34.2-9.4,51.3-4.1,22.5,3.8,38.1,28.8,35.5,8.3-.9,15.2-4.3,20.7-10.5.7-.7.9-.7.8,0" vector-effect="non-scaling-stroke" fill="none" stroke="#d8dbde" stroke-width="2"/>
    <path d="M664.9,130.3c.9-10.2,3.8-16.6,10-28,1-1.8,12.2-24.9,4.1-20.9-1.4.7-2.7,1.6-3.7,2.8-14.8,16.4-29.7,39.3-19,61.6.1.3.2.6,0,.9-6.8,18.5-12.3,36.7-14.5,56.3-.5,4.1-.4,7.1,0,9,1.5,5.8,7.4,10.2,13,12.2,1.3.5,2.1,0,2.3-1.2,3.7-20.9,9.1-41.3,16.3-61.2.1-.4.5-.6.9-.6,3.6.2,7.5.6,11-.3,14.1-3.9,25.3-11.9,33.7-24.1,9.5-13.7,11.6-31.1.2-44.5-5.5-6.4-11.2-4.6-17.4,0-14.5,10.4-26.7,23.1-36.6,38-.2.3-.3.3-.3-.1M446.2,144.9c13.4,15.5,35.7,16.4,52.9,9.9,12.2-4.6,17-13.7,14.7-27.1-2.2-12.4-15.6-16.2-26.9-17.3-11.5-1-23.2-1.2-34.2-5.1-1.3-.5-1.2-.9.2-1.3,19-5.4,39.6-4,57.5-7.9,4.2-.9,9-5.8,3.9-9.1-1.2-.8-3-1.4-5.5-1.9-21.7-4.2-45.8-3.9-64.4,9.8-4.6,3.4-6.1,7.6-5.9,13,.2,4.3,2.7,8.4,6.9,9.3,17.9,3.8,38-.6,54.6,10,2.4,1.5,3.3,3.6,1.2,5.8-.6.7-1.4,1.2-2.2,1.5-14.2,6.2-29.8,9.7-45,6.4-1.9-.4-3.5-1.4-4.6-2.8-.5-.7-.5-1.6,0-2.2,5.4-8.6,14.8-2.6,21.6-.2,7.8,2.7,15.4,1.7,22.2-3.2,1.7-1.2,1.6-2.4-.3-3.5-9.7-5.9-41-11-48.4.9-3.1,5-2.4,10,1.9,15.1M615.5,111.6l3.1-9.6c.1-.3.4-.5.7-.5,9.2.2,18.4-.3,27.5-1.5,2.3-.3,4-1.1,5.3-2.4.7-.7.9-1.8.6-2.7-2.2-5.9-7.1-11.5-13.8-11.6-15.3-.4-31.7,2.9-47,5.6-.7.1-1.2.7-1.1,1.4.6,7.7,6.5,8.2,12.6,9.6.4,0,.6.4.6.7,0,0,0,0,0,0l-4.8,11.7c-.3.6-1,1.1-1.8,1.1-5.6.5-7.1,3.4-4.3,8.6.5,1,.5,2-.1,3-4.1,6.9-6.6,15.1-4.3,23,1.2,4,5.5,13.1,9.5,13.9,16.6,3,31.4-5.5,43.8-15.6.3-.3.5-.5.5-.7.1-3.4-1.1-6.1-3.6-8.2-.2-.2-.6-.3-1-.3-10.5-.4-21,2.3-31.4,3.5-.4,0-.8-.3-.8-.7,0,0,0-.2,0-.2.8-4.4,2.2-8.6,4.2-12.5.5-1,1.3-1.5,2.4-1.5,6.3-.1,12.5-.4,18.6-.8,3.1-.2,5.8-1.1,8.1-2.7.3-.2.5-.4.5-.7.6-2.5.5-4.9-.4-7.3,0-.3-.4-.5-.7-.6-7.3-2.3-14.9-1.5-22.5-1.4-.2,0-.4-.2-.4-.4,0,0,0-.1,0-.2M421,159.3c3.1,1,6.2.7,9.5-.9.3-.1.5-.4.5-.7,2.1-18.7.4-39-1.5-58.7-.6-6.3-.4-10.3-6.1-14.3-1.8-1.3-3.3-.9-4.4,1-1.2,2.1-2,4.6-2.4,7.6-2.2,17.7-3,35.4-2.3,53.2.2,5.8.2,10.7,6.7,12.8" vector-effect="non-scaling-stroke" fill="none" stroke="#bfd3eb" stroke-width="2"/>
    <path d="M240.1,107.5c-3.3.4-14.1,2.8-16.3,6.1-.7,1.1-.6,2.2.3,3.3,3.4,4.1,7.1,7.9,11.2,11.3.2.2.4.2.6.2.1,0,.2-.1.3-.2" vector-effect="non-scaling-stroke" fill="none" stroke="#98aec9" stroke-width="2"/>
    <path d="M236.3,128.3c0,.4.1.8.5,1.1,9.3,7.2,19.6,12.4,31,15.6.2,0,.5,0,.5-.3,0,0,0,0,0-.1-.2-13.6.2-27.1,1-40.7,0-.1-.1-.2-.3-.2,0,0,0,0,0,0-9.8.2-19.4,1.5-28.9,3.9" vector-effect="non-scaling-stroke" fill="none" stroke="#bfd3eb" stroke-width="2"/>
    <path d="M236.3,128.3c1.6-6.9,2.9-13.8,3.8-20.8" vector-effect="non-scaling-stroke" fill="none" stroke="#d8dbde" stroke-width="2"/>
    <path d="M408.6,42.8c-.6,1.1-3.5,7.5-1.4,8.1.2,0,.6-.1.8-.5,4.8-7,10.5-13.1,17.1-18.5.9-.8.8-1-.4-.7-6.7,1.5-12.6,5.9-16,11.6M445.5,34.5c-8.1,4.4-21.1,14.6-24.9,23.5-.2.4,0,.9.4,1,0,0,.2,0,.3,0,10.7.2,20.5-2.5,29.5-8.1,4.2-2.6,12-10.8,8.9-15.8-2.6-4.2-10.7-2.6-14.2-.8M712.9,103c-11.5,9.7-21,23.4-28.3,37.5-.4.8-.2,1.2.7,1.1,9.8-.7,19.4-8,25.3-15.4,5.4-6.8,6.7-14.4,3.8-22.9-.2-.5-.7-.7-1.2-.6-.1,0-.2,0-.3.2" vector-effect="non-scaling-stroke" fill="none" stroke="#bfd3eb" stroke-width="2"/>
  </g>
  <path d="M235.1,137.6c-4.8-4.1-9.1-8.7-12.9-13.8-12.3-16.6,5.7-23.9,17.2-29.8,9.8-3.1,19.8-5.6,29.9-7.3.3,0,.5-.3.5-.5.7-8,1.5-16,2.4-24,.5-4.8,1.9-9.4,4.2-13.7.6-1.2,1.5-1.5,2.8-1,12.1,5,9.9,26.2,10.5,36.8,0,.3.2.5.5.5,18.8,0,47.9.8,61.7,15.9,11.9,13-6.4,30.8-20,24.4-1.8-.9-1.9-1.9-.4-3,3.3-2.4,6.2-5.2,8.9-8.4.3-.3.2-.8-.1-1.1,0,0-.1,0-.2-.1-14.3-7.2-34.4-10-50.2-10.2-.2,0-.4.2-.4.4,0,0,0,0,0,0l.5,48.5c0,.3.1.6.4.6,4.5,1.7,9.2,2.7,14,2.9,25.7,1.3,76.9-2.6,80.2-37.8,2-21.1-10.2-39.2-26-52.4-43.2-36.2-99.3-55.5-155.6-48.2-.5,0-8.3,1.1-8.3,2.4,0,.3.3.5.6.6,2.2.3,7.7,1.4,8.7,3.6.6,1.2,0,2.1-1.6,2.6-4.7,1.4-12.3,1.7-16.2-2-.2-.2-.3-.5-.3-.9.8-10.4,6.7-15.2,16.6-17.6,49.9-11.9,100.7,3,143.6,28.7,32.3,19.3,82.8,67,49,108.1-21.3,25.8-58,33.4-90,28.4-5-.8-9.5-1.6-13.6-2.4-.8-.2-1.5.3-1.6,1.1,0,0,0,0,0,0-1.2,9-5.6,10.5-13.3,9.6-.9-.1-1.8-.6-2.3-1.4-4-5.6-4.2-10.5-5.5-17,0-.3-.3-.6-.5-.7-11.9-6-22.9-13.4-33.1-22.1h0ZM240.1,107.5c-3.3.4-14.1,2.8-16.3,6.1-.7,1.1-.6,2.2.3,3.3,3.4,4.1,7.1,7.9,11.2,11.3.2.2.4.2.6.2.1,0,.2-.1.3-.2,0,.4.1.8.5,1.1,9.3,7.2,19.6,12.4,31,15.6.2,0,.5,0,.5-.3,0,0,0,0,0-.1-.2-13.6.2-27.1,1-40.7,0-.1-.1-.2-.3-.2,0,0,0,0,0,0-9.8.2-19.4,1.5-28.9,3.9ZM403,33.2c12-13.1,38.9-26.6,54.2-10.3.2.2.5.4.8.4,8.5,1.2,12.8,5.7,12.8,13.4.1,14.2-21.1,28.5-32.3,33.1-7.9,3.3-16,3.5-24.4.7-.3,0-.6,0-.8.2-2.2,2.7-5.3,8.9-9.6,4.5-2.9-2.9-3.7-6.7-2.4-11.3,0-.3,0-.6-.2-.8-8.7-9.3-6.1-21.3,1.9-30h0ZM408.6,42.8c-.6,1.1-3.5,7.5-1.4,8.1.2,0,.6-.1.8-.5,4.8-7,10.5-13.1,17.1-18.5.9-.8.8-1-.4-.7-6.7,1.5-12.6,5.9-16,11.6h0ZM445.5,34.5c-8.1,4.4-21.1,14.6-24.9,23.5-.2.4,0,.9.4,1,0,0,.2,0,.3,0,10.7.2,20.5-2.5,29.5-8.1,4.2-2.6,12-10.8,8.9-15.8-2.6-4.2-10.7-2.6-14.2-.8h0Z" fill="#7fa6d6"/>
  <path d="M566.7,132c.4.6.7.5.9-.2.5-1.6.6-3.3.5-5-1.5-17.3-6.6-34-11.1-51.2-.8-3.1.4-4.3,3.5-3.7,2.2.4,4.3,2,6.6,4.7,14.1,17,20,40.2,15.3,61.8-1.5,6.6-4.6,11.3-10.4,14.3-4.8,2.4-10.2,1.7-13.2-2.9-7.7-11.8-14.7-23.5-20.8-35.3-1.4-2.6-2.1-2.5-2.3.5-.6,13.2-.4,26-3.4,39.1-1,4.5-4.8,5-8.4,3-3.6-2.1-5.5-5.2-5.7-9.4-.5-15.1,1.3-29.8,5.4-44.3.9-3.1,4.5-15.9,9.3-15.3,4.2.6,14.4,14.7,16.2,17.6,5.6,8.9,11.4,17.6,17.6,26.2h0Z" fill="#7fa6d6"/>
  <path d="M39.6,88.7c5.5-7.4,12.9-11.1,22.3-11,.3,0,.5.2.5.5,0,0,0,0,0,0l-4.6,24.5c0,.2-.3.4-.5.4-10.2.3-19.4,3-21.9,14.1-1.2,5.4-4.2,21.2-8.8,47.4,0,.3-.3.6-.6.6H1.3c-.2,0-.3-.1-.3-.4,0,0,0,0,0,0l15.4-83.3c0-.5.5-.9.9-.9h22.5c.3,0,.5.3.5.7,0,0,0,0,0,.1l-1.3,7.2c-.1.7,0,.8.5.2ZM239.3,94.1c-11.4,5.9-29.4,13.1-17.2,29.8,3.8,5.1,8.1,9.7,12.9,13.8l-5.2,27.1c0,.3-.3.5-.5.5h-24.5c-.3,0-.5-.3-.5-.6,0,0,0,0,0-.1,2.9-15.5,5.8-31,8.6-46.4,1.2-6.7,1.2-14.9-7.2-16.2-11.4-1.8-17.8,5.4-20,15.7-1.5,6.8-4.4,22.5-8.8,47.2,0,.3-.3.5-.5.5h-24.5c-.2,0-.4-.2-.4-.4,0,0,0,0,0,0l15.5-83.8c0-.3.3-.6.4-.6l22.8.3c.2,0,.4.2.4.6,0,0,0,0,0,0,0,.3-1.3,7.2-1.2,7.3.1,0,.4,0,.5-.1,8.1-8.7,18.5-12.1,31.2-10.2,9.8,1.5,15.8,6.7,18.3,15.8h0ZM113.2,157.4c-5.5,6.1-12.4,9.6-20.7,10.5-25,2.6-32.9-13-28.8-35.5,3.1-17.1,6.3-34.2,9.4-51.3,0-.4.4-.6.7-.6h24.2c.3,0,.5.3.5.6,0,0,0,0,0,.1-2.9,15.7-5.7,31.4-8.7,47.1-1.1,6.1-1.2,13.4,5.9,15.2,12.5,3.1,19.5-4.5,21.8-15.8,3.1-15.5,6-31,8.8-46.5,0-.4.3-.6.7-.6h24c.4,0,.7.4.7.8,0,0,0,0,0,.1l-15.5,83.3c0,.3-.2.5-.4.5h-21.8c-.8,0-1.4-.8-1.3-1.6,0-.1,0-.2,0-.3l1.2-5.8c.2-.8,0-.8-.8,0h0Z" fill="#b1b6bc"/>
  <path d="M664.9,130.3c0,.4,0,.4.3.1,9.9-15,22.1-27.6,36.6-38,6.3-4.5,11.9-6.4,17.4,0,11.4,13.3,9.3,30.8-.2,44.5-8.4,12.1-19.7,20.2-33.7,24.1-3.4,1-7.4.5-11,.3-.4,0-.8.2-.9.6-7.2,19.9-12.6,40.3-16.3,61.2-.2,1.3-1,1.7-2.3,1.2-5.6-2-11.4-6.5-13-12.2-.5-1.9-.6-5,0-9,2.2-19.6,7.8-37.8,14.5-56.3.1-.3,0-.6,0-.9-10.7-22.4,4.1-45.2,19-61.6,1.1-1.2,2.3-2.1,3.7-2.8,8.1-4-3.1,19.1-4.1,20.9-6.2,11.4-9.1,17.8-10,28h0ZM712.9,103c-11.5,9.7-21,23.4-28.3,37.5-.4.8-.2,1.2.7,1.1,9.8-.7,19.4-8,25.3-15.4,5.4-6.8,6.7-14.4,3.8-22.9-.2-.5-.7-.7-1.2-.6-.1,0-.2,0-.3.2ZM499.1,154.8c-17.2,6.5-39.5,5.6-52.9-9.9-4.4-5.1-5-10.1-1.9-15.1,7.4-11.9,38.7-6.8,48.4-.9,1.9,1.1,2,2.3.3,3.5-6.8,4.9-14.4,5.9-22.2,3.2-6.8-2.4-16.2-8.4-21.6.2-.4.7-.4,1.6,0,2.2,1.1,1.5,2.7,2.4,4.6,2.8,15.2,3.3,30.8-.2,45-6.4.8-.4,1.6-.9,2.2-1.5,2.1-2.2,1.2-4.3-1.2-5.8-16.6-10.7-36.7-6.2-54.6-10-4.2-.9-6.7-5-6.9-9.3-.2-5.4,1.3-9.6,5.9-13,18.6-13.7,42.6-14.1,64.4-9.8,2.4.5,4.2,1.1,5.5,1.9,5.1,3.4.3,8.2-3.9,9.1-17.8,4-38.5,2.6-57.5,7.9-1.4.4-1.5.8-.2,1.3,11.1,3.9,22.7,4.1,34.2,5.1,11.3,1,24.7,4.9,26.9,17.3,2.4,13.4-2.5,22.5-14.7,27.1h0ZM615.9,112.2c7.5-.1,15.1-.9,22.5,1.4.4.1.6.4.7.6.9,2.4,1,4.9.4,7.3,0,.3-.3.6-.5.7-2.3,1.6-5,2.5-8.1,2.7-6.1.4-12.3.7-18.6.8-1.1,0-1.9.5-2.4,1.5-2.1,3.9-3.5,8.1-4.2,12.5,0,.4.2.8.6.9,0,0,.1,0,.2,0,10.5-1.2,20.9-3.9,31.4-3.5.4,0,.8.1,1,.3,2.5,2.1,3.7,4.9,3.6,8.2,0,.2-.2.5-.5.7-12.4,10.1-27.2,18.6-43.8,15.6-4-.7-8.4-9.8-9.5-13.9-2.3-7.9.3-16.1,4.3-23,.6-1,.6-2,.1-3-2.7-5.3-1.3-8.1,4.3-8.6.8,0,1.5-.5,1.8-1.1l4.8-11.7c.1-.3,0-.6-.4-.8,0,0,0,0-.1,0-6.1-1.4-12-1.9-12.6-9.6,0-.7.4-1.3,1.1-1.4,15.4-2.7,31.8-6,47-5.6,6.7.1,11.5,5.7,13.8,11.6.4.9.1,2-.6,2.7-1.3,1.3-3.1,2.1-5.3,2.4-9.1,1.1-18.3,1.6-27.5,1.5-.3,0-.6.2-.7.5l-3.1,9.6c0,.2,0,.5.3.6,0,0,0,0,.1,0ZM421,159.3c-6.5-2.1-6.5-7-6.7-12.8-.7-17.8.1-35.5,2.3-53.2.4-3,1.2-5.5,2.4-7.6,1.1-1.9,2.6-2.3,4.4-1,5.7,4,5.5,8,6.1,14.3,1.9,19.7,3.6,40,1.5,58.7,0,.3-.2.6-.5.7-3.3,1.6-6.5,1.9-9.5.9Z" fill="#7fa6d6"/>
  <path d="M240.1,107.5c-.9,7-2.2,13.9-3.8,20.8,0,0-.2.2-.3.2-.2,0-.4,0-.6-.2-4.1-3.5-7.8-7.2-11.2-11.3-.9-1.1-1-2.2-.3-3.3,2.2-3.3,13-5.7,16.3-6.1h0Z" fill="#b1b6bc"/>
</svg>