<?xml version="1.0" encoding="UTF-8"?>
<svg id="Layer_1" xmlns="http://www.w3.org/2000/svg" version="1.1" xmlns:inkscape="http://www.inkscape.org/namespaces/inkscape" xmlns:sodipodi="http://sodipodi.sourceforge.net/DTD/sodipodi-0.dtd" xmlns:svg="http://www.w3.org/2000/svg" viewBox="0 0 469.8 472.9">
  <!-- Generator: Adobe Illustrator 29.4.0, SVG Export Plug-In . SVG Version: 2.1.0 Build 152)  -->
  <g id="svg5" inkscape:version="1.2.2 (732a01da63, 2022-12-09)" sodipodi:docname="VilliansClub.svg">
    <sodipodi:namedview id="namedview7" bordercolor="#666666" borderopacity="1.0" inkscape:current-layer="layer1" inkscape:cx="87.400725" inkscape:cy="651.93806" inkscape:deskcolor="#d1d1d1" inkscape:document-units="mm" inkscape:pagecheckerboard="0" inkscape:pageopacity="0.0" inkscape:showpageshadow="2" inkscape:window-height="1051" inkscape:window-maximized="1" inkscape:window-width="1920" inkscape:window-x="-9" inkscape:window-y="-9" inkscape:zoom="0.56063608" pagecolor="#ffffff" showgrid="false"/>
    <g id="layer1" inkscape:groupmode="layer" inkscape:label="Layer 1">
      <path d="M235,472.9c-4.4,0-8.5-1.9-11.3-5.3l-.3-.3c-2.8-3.6-2.9-7.2-3.2-17.4-.2-6.7-.4-16.9-.5-31.3l-.7-80.5c-.2-22.1-.5-36-.7-44.7-1,.5-1.8.8-2.6,1.2-.3,10.3-.7,34-1.1,63.2l-.9,66.3c0,6.8-5.2,12.6-11.9,13.5-7.9,1.1-14.8-2.4-17.2-8.6-.9-2.3-1.2-3.1-.6-25.8-4.7,1.7-9.5.6-14.2-3.1l-1.1-.9c-3.3-2.6-5.1-6.6-5-10.8l.9-33v-.5c-.5.1-1,.2-1.5.3-4.4.6-8.8-.9-12.2-4.2h0c-3.8-3.8-4.4-9.3-4.4-12.2,0-5.3,1.7-8.8,3.9-11.1-1.5.9-3.1,1.8-4.7,2.7l-8.8,5c-.5,5.1-.7,21.9-.7,31.3-.1,14.2-.2,22.2-.4,27.1-.2,5.2-.5,11.2-5.8,15.2-4.5,3.4-10.4,3.9-15.4,1.2-6.8-3.6-7.2-10.7-7.5-15.4-.3-4.4-.4-12.1-.7-26.4-2.2,1.3-4.8,2-7.5,2-5.1,0-14-2-15.6-15.1-.5-4.3-.6-10.6-.6-24-1.6,0-3.2-.4-4.7-1-.3,2.5-.7,5.4-1.1,7.8-.4,2.7-.9,9.2-.9,25.2s0,24.1-3.3,28.8c-4.9,7-12.1,8.6-19.4,4.3-6.3-3.7-6.8-10.2-7-12.7-.2-2.7-.2-6.7-.2-14.5s0-9.4-.2-12.2c-5.5-4-6.8-9.5-8.8-17.3-3-11.9-9.4-38.7-10.6-44.1-.5-2.6-2-9.1-3.3-14.4-6.2-26.4-9-39.4-15-69.4C.8,174.7,0,171.1,0,164.6s.8-11,6.2-16.4c4-4,7.9-5.9,13.1-6.5,2.2-.2,7.9-.9,13,3.2,5.7,4.6,6.5,11.8,7.4,19.4.9,8.5,3.4,22.1,7.4,41.5,1.1,5.2,2.3,11,2.6,12.8.5,2.5,1.4,6.7,2.5,11.7,2.9-17.2,5.7-31.8,10-52.6,3.8-18.3,11.7-50.2,15.5-63.2,1.1-3.6,2.4-8.2,2.9-10,1.2-4.1,3.2-10.8,4.7-15.2.5-1.4,2-6.4,3.6-11.7,9.2-30.1,10.1-33.3,15.6-38.1,7.8-6.9,17.9-7.1,25.7-.5,13.8,11.6,7.6,25.3,4.7,31.9-4.5,10-10.4,25.3-13.6,35.6l-2.5,8v30.4c0,8.9,0,16.5,0,22.2,2.2-19,2.9-21.1,4.3-23.7,2.5-4.6,6.6-7.9,11.7-9.4,5.2-1.4,10.8-.7,15.6,2.1,1.2.7,2.2,1.4,3.1,2.1.8-7.8,1.5-12.5,2.3-16,1.8-7.9,5.3-12.5,11.8-15.2,8.1-3.3,17.4-.7,22.7,6.5,4,5.4,3.9,10.5,3.8,16.3-.1,4.1-.7,11.6-1.4,17.1-.6,5.1-2.5,19.5-4.1,32.1-.1,1.1-.3,2.2-.4,3.2,2.3-1,4.7-2,6.9-3,2.4-1.1,4.5-2,6.1-2.7.3-1.5.7-3.3,1.1-5.5,1.1-5.6,2.5-12.6,3.1-14.8.4-1.6,1.6-6.7,2.6-11.1,2.2-9.3,6.6-25.7,8.9-33.1,4.5-14.4,9.3-28.5,13.6-39.7,7-18.7,9.4-21.7,12.1-23.8,3.1-2.6,7.5-3.6,9.8-4,5.7-.9,10,.2,14.4,3.6,2.3,1.8,5.2,5,6.6,8.7.4,1.1.9,2.4,2.1,18.9,3.4-2.4,7.3-3.9,11.2-3.9h0c4.6,0,8.5,2.4,10.8,4.1.8-2.4,1.9-4.3,3.7-6.3l.3-.3c3.8-4.6,8.1-6.5,14.2-6.5h0c15.2,0,18.6,11.7,21.8,23,.6,2.2,1.5,5,2.4,8.1,1.9-10.3,4.1-20.3,5.6-25.4.5-1.8,1.7-5.9,2.6-9.2,1-3.5,3.5-11.9,5.8-18.9,2.1-6.5,4.6-14.9,5.4-18.3,2.2-8.9,4.3-15.1,13.1-19.5,5.3-2.7,11.4-3.1,16.8-1.1,5.4,2,9.7,6.2,12,11.5,3.4,8.1,1.8,13.8-1.9,21l-1.1,2.1.3,30c7.5-8.7,14.5-15.7,20.9-20.8,5.7-4.6,9.8-7.9,17.9-6.8,10.1,1.4,16.8,9.1,16.8,19.3s-3.2,11.2-13.7,21.6l-6.5,6.4c0,1,.1,2.5.3,4.1,7.4-.9,18.5-1.5,24.8,1.8,3.4,1.8,6.7,5.1,8.5,8.5,5.1,9.9,1.8,15.5-4.9,24.8-1.3,9.5-2.1,51.3-2.3,67.6v.2c-.3,17.2-.5,27.5-.8,34.1-.4,7.3-.8,14.8-7.5,18.8-4.2,2.5-8.8,2.4-13.8-.3-.7-.4-1.3-.8-1.9-1.2,0,14.1.3,25.5.5,27.6.5,5.2.6,10.7-3.2,15.3-1.2,1.5-2.7,2.7-4.3,3.6,1.8,2.3,3,4.8,3.8,7.4,6.7,2.2,10.9,6.6,11.3,16.6.1,3.5.4,10-5.2,14.4-4.2,3.4-8.9,3.3-12.8,2.6-3.8,5.5-7.9,9.9-12.2,13.1,2.5,4.7,1.4,10,.2,16-.5,2.6-1.9,8.8-2.8,11.2-1.1,2.9-4,7.4-8.5,13.3-4.8,6.2-8.3,10.5-13,11.8-.6,2.5-1.7,5.4-3.8,8.6-4.1,6.4-8.4,9.7-13.6,10.2-1.7.2-3.5,0-5.1-.5-1.9,1.3-4.2,2.2-7,2.3-2.4,0-5.1-.5-7.6-2-.4.2-.8.3-1.3.5-1.3.4-4.4,1.2-7.9,0-2.3,1.5-5.1,2.4-8.1,2.4s-9.7-1.8-13.9-10.3c-1.3-2.6-2.3-6.2-2.9-9.6-2.9.6-5.5,0-6.9-.4-2.7-.9-4.9-2.5-8.1-4.8l-.7-.5c-4-3-6.6-5.5-8.3-8.6.1.5.3.9.4,1.4l.8,3.8c.8,3.7.4,9.1-3,13.1-2.7,3.2-6.7,5.2-11,5.4-4,.2-7.9-1.3-10.7-4-3.6-3.6-4.4-9-3.9-13.7-6.1-3.9-6.3-10.6-6.5-15.7-.2-5-.3-13.5-.4-31.9l-.2-33.5-.6-.9c-3.7-5.7-4.3-9.2-5.3-18.3-.4-3.7-.9-7.8-1.4-11.5-1,.4-1.9.8-2.9,1.1v.3c-.2,3.6-.3,42.7,0,93,.2,37.1.2,57.2.1,69.4-.1,18.6-.1,21.5-3.5,25.5-2.9,3.5-7.1,5.5-11.6,5.5l-.3-.5ZM290.6,377.3c1.1,1,2,2.1,2.8,3.4-1.6-4.6-2.1-10.7-2.9-20.4v17.1h.1ZM290.4,331.5v13.3c.6-2.3,1.7-4.5,3.7-6.7.7-.8,1.5-1.5,2.2-2.1-2.1-1.4-4-2.9-5.9-4.5h0ZM161,323.1c1.4,0,2.8.2,4.2.6v-4.3c-2.3,1.2-4.8,2.6-7.5,4,1.1-.3,2.2-.4,3.3-.4h0ZM113.1,293.7c0,2.1-.2,6.2-.2,11.5,6.3-4,14-8.7,20.4-12.4-6.7,3.2-12.4,3.6-19.1-.8,0,0,0,0-.2-.1-.3.7-.6,1.3-.9,1.8ZM293,284.1c.3,1.4.6,2.8.8,4.1,1.5-.9,3-1.8,4.5-2.6-2-.5-3.8-1-5.3-1.5ZM375.4,240c-.4,8.1-.9,26.2-1,36.3,1.8-.5,4-.9,6.2-1.2,0-4.6-.1-10.6-.2-18-.1-8-.3-14-.4-18.7-1.1.4-2.2.7-3.4,1.1l-1.1.4h-.1ZM339.3,263.8l5.2,1.8h0v-3.9c0-5.9,0-10.5-.2-14.1-1.5.7-3.2,1.4-5,2v14.2h0ZM185.4,260.9v4.1c5.8-2.9,10.9-5.4,14.1-7v-2.2c-.8-.7-1.6-1.5-2.3-2.3-2,1.4-4.5,3-7.7,4.9-1.1.6-2.1,1.2-2.9,1.7-.4.2-.9.5-1.3.7h0ZM421.7,200.9c2.3,0,4.6.5,6.9,1.4.9.4,1.7.8,2.4,1.2,0-3.3.2-6.8.3-10.4-4,1.4-8.1.8-12.1-1.8h0s-.1,0-.2-.1c0,3.4-.2,6.9-.2,9.9.9-.2,1.9-.2,2.8-.2h.1ZM372.3,165v3.1c.4-.4.9-.8,1.3-1.2.2-.1.4-.4.7-.6-.2-.1-.5-.3-.7-.4h0c-.4-.3-.8-.6-1.2-.9h0Z" fill="rgb(155, 201, 74)"/>
    </g>
    <g id="layer11" inkscape:groupmode="layer" inkscape:label="Layer 1">
      <path id="path3021" fill="rgb(89, 57, 121)" d="M232.6,459.9c-.6-.7-1-13.2-1.2-41.4-.2-22.2-.5-58.5-.7-80.5-.4-40.7-1-60-1.9-61.5-.3-.5-4.8,1.1-12.6,4.5-9.2,4-12.2,5.7-12.6,6.9-.3.9-.9,32.2-1.3,69.6l-.8,66.3c0,1-.7,1.8-1.6,2.1h0c-2,.5-3.8,0-4.3-1.5-.2-.6,0-14.6.4-31.3.8-31.8.4-83.9-.9-93.9-.4-3.3-1.1-6.3-1.5-6.7-.5-.5-2.2,0-5.2,1.3l-4.4,2.1-.5,6.3c-.3,3.5-.5,24.4-.4,46.5v38.7c.1,1-.3,1.9-1.1,2.5l-.5.4c-1.9,1.1-2.4,1.2-4.5,0h-.2c-.9-.9-1.4-2-1.4-3.2l.9-31.8c.8-30.9.6-52.6-.5-54.5-.5-.8-17.6,7.9-36.3,18.7l-13.1,7.5-1.1,3.6c-.9,2.8-1.1,10.5-1.3,35.5-.2,28.2-.4,32-1.5,32.8-.8.6-1.6.7-2.5.2-1.2-.6-1.3-3.5-1.9-32-.3-17.2-.8-31.9-1.1-32.7-.5-1.2-1.1-1-6,2.2-4.3,2.8-5.8,3.4-6.7,2.7-3.1-2,.5-13.7,5.6-18.2,2.8-2.5,17.4-11.6,32.2-20.1,5.8-3.3,11.1-6.5,11.9-7,1.1-.8,1.5-2.7,2-11.5.7-12.3.3-17.3-1.6-17.1-.7,0-7.2,4-14.4,8.8-13.8,9.2-15.8,10-19.6,7.5-3.4-2.2-3.6-5.3-1.6-19.8,1-7.2,3.2-24.1,4.9-37.5,1.7-13.4,3.5-28.4,4.2-33.4.6-4.9,1.5-12,1.9-15.8,2-18,3-25.2,3.7-26.6,2-3.7,6.7-4.8,10.5-2.6,4.1,2.4,4.1,3,1.9,22l-2,17.3.8,25.7c.9,29.9,1.4,39.6,1.8,40.1.2.2,2.5-1,5.1-2.6s9.6-5.8,15.5-9.2l10.7-6.3-.2-6.9c-.3-9.3-.7-9.5-7.8-6-6.4,3.2-9.1,3.4-11.8,1.3-2.9-2.3-3.5-4.9-2.3-10.1,1.8-8.2,4.7-26.2,5.5-33.4.4-3.9,1.5-14.2,2.3-22.9,3.3-33.6,3.7-35.2,8.3-37.2,3-1.2,6.5-.2,8.5,2.5,1.4,1.8,1.6,3,1.4,8.8,0,3.7-.7,10.8-1.3,15.9s-2.5,19.5-4.1,32.1-2.8,23.1-2.6,23.4c.4.6,1.9,0,10-3.8,2.7-1.2,9.8-4.4,15.8-7s11.2-4.9,11.5-5.2,1.6-5.6,2.8-11.7c1.2-6.1,2.5-12.5,2.9-14.2.4-1.6,1.6-6.7,2.7-11.2,2.1-9,6.4-25.1,8.7-32.2,9.2-29.3,19.1-55.7,21.8-57.9.6-.5,2.4-1.1,4.1-1.4,2.4-.4,3.4,0,5.1,1.2,1.2.9,2.4,2.5,2.8,3.5.6,1.6,2.7,36.8,5.1,84.7l.8,15.1,2.2,2.2c3.7,3.7,3.8,8.2.2,12.9-1.3,1.7-1.4,2.6-.7,12.8.9,14.6,4.3,51.1,4.8,51.6s3.3-.6,6.9-1.9l6.6-2.3.2-14.8.2-14.8-3.3-3.2c-3-2.9-3.3-3.5-3.8-7.9-2.2-21.5-2.9-36.1-3.2-67.8-.4-33-.3-35.5.9-38.2,1.5-3.1,5-5.7,7.6-5.7s2.8,1,4.1,2.2l2.4,2.2v39.3c.1,31.8.4,41.4,1.4,50.5,2.4,21.2,2.4,22.1,0,25.5l-2.1,3,.5,12.5c.5,13.5.8,15.2,2.7,14.7.7-.2,8.3-2.3,17-4.6s16.5-4.6,17.5-5l1.8-.7-.5-11.4c-1.8-41.7-4.5-68.5-8.1-79.8-1.3-4.2-2.6-7.5-2.9-7.3-.8.5-1.4,27.1-.8,38.8.3,6.1.2,11.7-.1,12.4-.4.7-1.7,2.2-3,3.3l-2.4,2v14.4c0,12.5-.2,14.4-1.2,15-2.7,1.5-3.3-1-3.3-15.8v-14l-2.4-2.7c-2.3-2.6-2.4-3-2.9-11.6-.7-10.5,0-45,1.1-57.3,2.8-31.4,2.5-29.2,5-32.3,1.5-1.8,2.5-2.2,5-2.2,5.4,0,6.7,1.8,10.2,14.2,4,14,18.1,56.2,18.8,56.2s.7-2.1,1-4.7c1.6-17.7,2.3-23.4,4.2-34.7,2.1-12.8,5.3-27.8,7.1-34.1.5-1.9,1.7-6.1,2.6-9.4.9-3.3,3.4-11.6,5.6-18.4,2.2-6.8,4.7-15.4,5.7-19.1,2-8.1,3-9.7,6.9-11.7,4.8-2.4,10.2-.5,12.3,4.4,1.5,3.7,1.3,5.5-1.5,10.8l-2.5,4.8.4,33.7c.3,29.4.5,33.5,1.4,32.2,14.8-20.6,28-35.8,39-44.6,5.4-4.4,6-4.6,8.8-4.2,4,.5,6.4,3.3,6.4,7.4s-.4,3.5-10.1,13l-10.1,10v4.4c0,4.2,1.4,17.6,1.9,18.1.1,0,3.6-.3,7.7-.9,9.6-1.5,19-1.6,21.9,0,1.2.6,2.7,2.1,3.3,3.3,2,3.9,1.9,4.1-5.2,14-1.6,2.1-2.5,21.5-3.4,72.6-.8,44.5-.8,44.4-4.5,42.4-1.7-.9-1.7-1.1-1.2-10.4.8-16.5,2.1-75.8,1.9-85.2-.2-5.8-.5-9-1-9s-5,5.1-10.1,11.2c-5.1,6.2-9.5,11.4-9.7,11.6-.5.4-10.3,12-13.4,15.8-1.6,1.9-1.9,3.3-2.4,11-.3,4.8-.6,14.6-.6,21.7v12.9l1.8.5c3,.8,3.8,3.1,1.9,5.5-1.6,2-1.6,2.4-1.1,18.2.3,8.9.5,18.6.5,21.6,0,6-.8,7.8-3,6.4-1.2-.7-1.3-3-1.7-21-.2-11.1-.7-20.7-1-21.5-.4-1-1.1-1.2-2.9-.8-3.1.6-3.4.9-4.1,4.8-.7,4.1-.8,58.1,0,58.8.3.3,2.8,1.1,5.6,1.8,10.8,2.8,17.7,7.8,18.7,13.7.7,3.8,2,5.9,3.9,6.2,6.1,1.1,6.6,1.5,6.7,6.5.2,5.5-.2,5.8-6.5,4.1-2.5-.7-4.7-1.2-4.8-1.2s-1.4,2-2.9,4.4c-6.2,10-13.4,15.9-19.6,16-4.6,0-9.6-3.5-18.3-12.9-8.6-9.4-10.2-12.2-11.9-20.9-1.1-5.5-1.8-7.2-2.9-7.6-3.1-1.2-3.2-1.1-3.3,10.4-.1,12.2-.5,10.6,6.5,25.6,2.5,5.4,3,9.1,1.4,10.8-2.8,2.8-8,.8-12.4-4.7-1.4-1.7-2.8-3.1-3.3-3.1s-2.3,1.9-4,4.1c-2.8,3.6-7,7.1-8.5,7.1s-1.3-.6-2.2-1.4c-1.4-1.2-1.7-2-1.6-5,.3-6.4,4.9-20.1,8.9-26.4,2.9-4.5,5.2-6,7.6-4.7.8.5,1.7.8,2,.8s.4-3.9.4-8.7v-8.7l-3.4-1.4c-1.8-.8-4.8-1.8-6.6-2.3-1.8-.5-6.7-2.2-10.9-3.8-4.2-1.6-7.9-2.9-8.1-2.9s-.4,1.6-.4,3.7c0,3.5,0,3.7,2.1,3.6,4.3,0,5.4.3,7.6,2.1,4.7,3.9,4.6,10.8-.1,20.5-3.2,6.4-7.1,10.2-14.3,13.9-9.9,5-16.2,3.7-25.8-5.2-4.9-4.5-6.9-7.9-6.9-11.6s1-4.9,7.3-9.1c7.1-4.8,14.2-8,20.1-9.2l4.5-.9.2-5,.2-5-2.8-1.2c-1.6-.7-7.6-2.4-13.3-3.8-13.2-3.3-15.4-4.3-15.2-6.8,0-1.2-.4-2.2-1.2-2.7-4.2-2.5-5.9-3.9-5.7-4.6.5-1.3,7.9-.5,13.2,1.5,5.6,2,23,7.2,24.2,7.2s1.1-22.3.3-25.3c-.2-.9-1-1.7-1.6-1.7-3.6,0-43.7,13.5-43.7,14.7,0,2.3,3.1,21.9,4.1,25.7,2.3,9,2.3,11.7,0,16.8l-2.1,4.7.2,36.9.2,36.9-1.6,1.1c-1.1.8-2,.9-3,.4-1.2-.7-1.3-3.2-1.6-37.7l-.2-37-2.5-3.9c-2.2-3.5-2.6-4.8-3.5-13.1-1.2-10.9-3.4-25.6-3.8-26s-12,3.8-19.1,6.8l-4.9,2-.5,7.7c-.3,4.3-.3,46.4,0,93.8.3,69.5.2,86.2-.6,87.2-1.2,1.4-3.3,1.5-4.4.1h0l-.3.4ZM183.5,279.2c11.5-5.7,22.4-11.1,24.3-12l3.4-1.7.2-8,.2-8-2.8-1.8c-4.5-2.9-4.7-3.8-3.1-19,.8-7.4,1.7-15.8,2.2-18.5,1.1-7.2,1.1-7.5-.8-6.9-.9.3-4.5,1.8-8,3.5s-8.2,3.8-10.4,4.8c-5.1,2.2-6.3,4.7-6.3,12.8v5.7l2.1-.6c3.8-1.1,6.2-.6,8.6,1.7,2.6,2.6,3.1,6.4,1.2,9.3-.6,1-5.6,4.4-11,7.7-11.3,6.7-10.2,4.5-9.9,19.6.1,6.4,0,8.6-1,9.8-.9,1.2-1.3,1.3-2.1.5-.7-.7-1-3.6-1-10.3s-.3-9.5-.6-9.8-1.7,0-3.1.6c-2.2,1-2.7,1.8-3.4,5-1,4.5-1.1,26.5-.2,26.1.3-.1,10.1-4.9,21.6-10.6h0ZM376.8,288.1c2.1-.6,6.4-1.3,9.5-1.5s5.8-.4,5.9-.4c.2,0,0-13.1-.2-29.2-.4-23.3-.7-30.3-1.7-34.9-1.6-7.2-1.1-8,5.9-8.6l4.7-.5.6-11.6c.6-11,.3-21.5-.5-22.3-.2-.2-4,3.1-8.5,7.3-8,7.6-12.2,10.5-15.1,10.5s-2.7-1.2-4.3-2.6c-2.6-2.4-2.7-2.9-2.4-5.9.4-3.3,1.5-4.7,10.4-12.4,3.3-2.8,21-22.1,27.8-30.1,2.6-3.1,8.9-10.6,14-16.7,5.1-6.1,9.1-11.2,8.9-11.5-.6-.6-15,3.2-21.9,5.9-6.6,2.5-9.5,3.8-19.4,8.3-8,3.7-11.8,3.7-15.1.1-2.6-2.8-2.3-4.8,2.2-14.3l3.4-7.2v-25.6c0-25.4-.5-36.3-1.5-35.2-.9,1-4.3,12-7.4,24.2-5.7,22.1-9.7,45.7-11.3,67.1-.9,12.3-1.1,39.5-.3,52.9l.5,9.4-2.1,1.6c-2.6,2-5,2.7-7.5,2-3.7-.9-5.1-3.4-8.1-13.9-3.8-13.6-7.2-24.2-8.1-25.1-1.1-1.2-.8,11.8.8,34.5,1.3,18.1,1.6,21.1,2.8,21.8,2.9,1.7,4.8,4.4,4.8,6.8s-3,5.7-9.5,7.4c-2.8.8-5.6,1.7-6.1,2.1-.7.5-.9,4.7-.9,16.2v15.5l13.3,4.5c7.3,2.5,13.9,4.8,14.6,5.1,1.2.5,1.3-.7,1.3-20.3s-.7-30.4-2.4-30.9c-1.8-.6-5.8-5.1-6.3-7.2-1.2-4.6,5-6.8,21.4-7.7,10.9-.5,14.6.4,15.4,3.8.9,3.4-1.9,5.4-11.8,8.5l-8.8,2.7-.5,3.8c-.5,4.2-1.7,48.3-1.3,49.5.3.8,8.1,4.7,9.8,4.8.6,0,2.7-.4,4.9-1h0v.3ZM379.6,155.8c-1.3-.8-.9-10.8.5-12.2s2.7.6,3,6.2c.3,5-.2,6.6-2.1,6.6s-.8-.3-1.4-.7h0ZM224.5,260c4.5-2,5-2.4,5.5-5.1,1-5.3.8-49.7-.3-54.4-1-4.4-2.7-6.7-3.9-5.4-.7.7-4.6,29.9-5.6,41.9-.5,6.1-1.5,9.1-3.7,10.8-1.3,1-1.6,6.9-.7,12.3.6,3.4.9,3.3,8.8-.2h-.1ZM140.7,243.7c0-13.1-.6-22.3-1.3-20.5-.4,1-2.9,20.1-4.2,32.5l-.4,3.6,2.9-1.9,2.9-1.9v-11.9h.1ZM249.8,249.8c5.2-1.9,9.7-3.8,10-4.1s.3-3.1-.2-6.1c-.9-6.2-2.6-23.2-4.2-42.6-.6-7.2-1.3-13.2-1.5-13.4s-1.2,0-2.1.5c-.9.5-4.4,2-7.7,3.4-4.5,1.9-6.3,3-7,4.6-1.6,3.2-1.9,21.2-.9,42.6.5,10.4,1.1,19.2,1.3,19.6.2.3.9.3,1.6-.1.7-.4,5.5-2.3,10.6-4.2h0v-.2ZM233.6,174.8l4.2-1.9v-9.2c0-10.3-.7-19.3-1.5-19.3s-1.9,6.2-3.6,13.7c-3.6,16-4.1,18.6-3.7,18.6s2.2-.8,4.6-1.9h0ZM248.4,167.6l4.6-2.3-.5-11.4c-.3-6.3-1-18.5-1.6-27.1-.6-8.7-1.1-17.9-1.1-20.5s-.3-4.7-.9-4.5c-.5.2-2.4,5-4.2,10.7l-3.3,10.5.5,21.9c.4,18.6.6,23.3,1,24.8.1.4,1.1,0,5.4-2.1h.1ZM401.5,110.6c.9-.5,4.8-2,8.8-3.3l7.2-2.4.2-9.6.2-9.6-3.8,4.1c-3.5,3.8-10.5,13.3-14.3,19.3-1.6,2.6-1,3.1,1.8,1.6h-.1ZM332.2,402.6c-.9-2-1.9-5.5-2-7.9-.4-5.2.5-5.9,4.8-3.8l2.9,1.4.2,5.9c.2,6.2-.4,8-2.9,8s-2-1.3-3.1-3.6h.1ZM357.7,403.4c-.4-1.1-.8-4.6-.9-7.8-.1-4.7.1-6.1,1.1-7.1s1.5-1.2,3.9,0c3.4,1.6,3.9,3.7,2.2,9.2-2.2,7.6-4.8,9.9-6.4,5.8h0ZM345.3,401.5c-1.4-2.8-2.3-6-3.5-11.7-.5-2.4,2.5-5.4,5.5-5.4s2.5,0,3.4,8.2c.4,3.4-1.7,11.3-3.1,11.8-.4.1-1.4-1.2-2.2-3h0ZM370.3,403.4c-.8-.8-.5-10.7.3-12.3s1.6-1.5,3.2-1.5c4.9,0,5.6,3.4,1.9,9.1-2.3,3.6-4.5,5.5-5.4,4.6h0ZM279.5,395.2c-.8-.8-.6-6.2.3-7.8,1.1-2,2.9-1.8,3.3.4.2,1,.6,2.8.8,3.8.2,1.1,0,2.4-.5,3-.9,1.1-3.1,1.4-3.9.6h0ZM59.1,385.9c-1.2-.7-1.3-2.3-1.3-16.8s-.3-16.9-.7-17.9-1.7-2.4-3-3.1c-2.9-1.5-3.5-2.7-5.7-11.5-3-11.8-9.4-38.4-10.5-43.7-.6-2.7-2.1-9.3-3.3-14.6-6.2-26.4-8.9-39-15-69-7.4-36.8-7.9-39.5-7.9-44.8s0-5.2,2.7-7.8c2.1-2.1,3.5-2.8,6-3.1,5-.6,5.8.8,7.1,11.9,1,8.9,3.5,22.9,7.5,42.6,1.1,5.2,2.2,10.9,2.6,12.7,1.6,8.3,7.3,33.5,11.2,49.9,1.3,5.4,2.8,12.1,3.4,14.9.9,4.4,2.5,8.7,2.6,7.1,0-1.1,3.1-23.2,4.6-32.8,4.9-32.3,7.9-49,14.3-79.9,3.7-18,11.5-49.5,15.3-62.3,1.1-3.7,2.4-8.3,3-10.1,1.1-4,3.1-10.4,4.5-14.6.6-1.6,2.2-7,3.7-12,8.5-28.1,9.3-30.2,12.1-32.6,3.4-3,6.8-3.1,10-.3,5.4,4.5,5.7,8.3,1.5,17.8-4.7,10.5-10.7,26.1-14.1,36.9l-3.1,9.8v32.2c0,17.7.2,33.5.5,35.1.4,2.4.8,2.9,2.6,3.3,3.7.7,5.5,3.5,5.4,8-.4,9.7-7.4,69.6-10.4,88.2-.7,4.5-1.7,7.7-2.6,8.9-1.4,1.8-1.5,3.2-1.5,28.3s.3,29,.8,32c.9,6.8.2,9.5-2.6,9.5-4.1,0-4.2-.5-4.2-34.9v-31.6l-2.6-1.8c-1.5-1-2.8-2.7-3.1-3.8-.2-1.1.4-8,1.5-15.4,2.6-18.4,4-29,4.6-34.7.3-2.7.9-9.1,1.5-14.2.6-5.2,1.6-14.4,2.3-20.6.6-6.2,1.5-12.3,1.9-13.5.9-2.6,0-52.1-.9-50.5-.3.6-1.4,4.7-2.5,9.3-1.1,4.5-2.5,10.3-3.1,12.8-9.8,39.1-22.7,116.3-27.7,165.8-.3,2.5-.9,7.5-1.5,11.2-.7,4.6-1.1,13.3-1.1,27s-.2,20.5-1.2,21.9c-1.3,1.9-1.6,1.9-3.5.9h-.1ZM310.7,383.3c-7.3-5.4-7-4.4-8.8-29.1-.4-5.7-.3-6.8.9-8.1,1.8-2,3.4-1.9,7.9.4,2,1,4.2,1.9,4.9,1.9,1.9,0,2.1,2,.7,7.1-1.6,5.8-1.2,15.1.8,23.4,1.1,4.4,1.2,5.6.4,6.6-1.3,1.6-1.6,1.5-6.7-2.2h0ZM384.8,384.1c-1.5-1.7,0-27.3,1.7-29.9,2.6-4,12.7-7.1,15.8-4.8,1.3,1,1.3,1.3-.2,8.6-.9,4.2-1.9,8.4-2.2,9.3-1.4,3.7-12.2,17.9-13.6,17.9s-.9-.5-1.4-1.1h0ZM327.7,380.9c-.4-1.1-1.1-5.7-1.5-10.2-.7-7.1-.6-8.4.4-10,1.5-2.4,4.2-2.3,6.4,0,1.6,1.7,1.8,2.8,2.1,9.4l.3,7.5-2.6,2.6c-3.2,3.2-4.1,3.3-5.1.6h0ZM374.1,380.1c-.8-.9-1.3-3.8-1.6-8.9q-.5-7.6,1.5-9.2c3.9-3.1,6.6-1.3,6.6,4.3s-3.3,15.1-4.8,15.1-1-.6-1.6-1.3h-.1ZM339.2,379.9c-1.3-1.3-1.2-2.7.7-12.3.9-4.5,1.7-9,1.9-9.9.4-2.3,2.7-2.1,4.1.4.7,1.1,1.4,3.6,1.7,5.4.3,1.9,1.2,5.1,2,7.1,1.8,4.9,1.8,6.9-.3,8.2-2.4,1.6-9,2.3-10.1,1.1h0ZM355.5,376.8c-1-1.9-.4-7.3,1.3-12,.7-1.8,1.2-6,1.3-9.7,0-4.1.5-6.9,1.1-7.5,1.4-1.4,2.5.2,3,4.4.2,2.1,1,4.2,1.8,5,.8.7,1.4,2.3,1.4,3.5s.4,4.6.9,7.4c.8,4.7.8,5.4-.5,6.7-1.2,1.3-7,3.8-8.8,3.8s-1-.7-1.4-1.6h0ZM159.2,342.3c-.5-.5-.9-2.2-.9-3.7,0-2.2.3-2.9,1.6-3.3,2.9-.9,4.6,3.1,2.8,6.5-.9,1.7-2.3,1.9-3.6.6h0ZM81.1,317.9c-.9-1.6,0-6.3,1.2-6.8,1.3-.4,2.6,2.5,2.3,5.3-.3,2.8-2.3,3.6-3.5,1.5h0ZM419.6,278.9c-.5-.8-.6-4.9-.3-11.1.3-5.4.5-18.2.6-28.5,0-15.4-.1-19-1.1-20.2-2.9-3.8.3-7.6,4.8-5.7,3,1.3,3.7,3.6,1.6,5.3-1.6,1.2-1.7,1.3-1.6,24.8,0,13,.3,26,.5,29,.3,3.9.2,5.8-.5,6.6-1.3,1.5-3.2,1.4-4.2-.2h.2ZM315.5,220.4c-1-1-.5-5.3.7-5.8,2.4-.9,4,2,2.8,5.1-.5,1.2-2.6,1.6-3.5.7ZM425.4,181.3c-.9-.5-1-2.4-.6-9.6.5-9.6.9-11.5,2.5-11.5s1.8.8,1.9,10.8c0,7.4-.1,9.7-.9,10.2-1.3.8-1.5.8-2.8,0h-.1Z"/>
    </g>
  </g>
</svg>